HIERARCHY
ROOT root
{
	OFFSET 0.000000 0.000000 0.000000
	CHANNELS 6 Xposition Yposition Zposition Zrotation Yrotation Xrotation
	JOINT lhip
	{
		OFFSET 0.058581 -0.082280 -0.017664
		CHANNELS 3 Zrotation Yrotation Xrotation
		JOINT lknee
		{
			OFFSET 0.043451 -0.386469 0.008037
			CHANNELS 3 Zrotation Yrotation Xrotation
			JOINT lankle
			{
				OFFSET -0.014790 -0.426874 -0.037428
				CHANNELS 3 Zrotation Yrotation Xrotation
				JOINT ltoe
				{
					OFFSET 0.041054 -0.060286 0.122042
					CHANNELS 3 Zrotation Yrotation Xrotation
					End Site
					{
						OFFSET 0.000000 0.000000 0.000000
					}
				}
			}
		}
	}
	JOINT rhip
	{
		OFFSET -0.060310 -0.090513 -0.013543
		CHANNELS 3 Zrotation Yrotation Xrotation
		JOINT rknee
		{
			OFFSET -0.043257 -0.383688 -0.004843
			CHANNELS 3 Zrotation Yrotation Xrotation
			JOINT rankle
			{
				OFFSET 0.019056 -0.420046 -0.034562
				CHANNELS 3 Zrotation Yrotation Xrotation
				JOINT rtoe
				{
					OFFSET -0.034840 -0.062106 0.130323
					CHANNELS 3 Zrotation Yrotation Xrotation
					End Site
					{
						OFFSET 0.000000 0.000000 0.000000
					}
				}
			}
		}
	}
	JOINT lowerback
	{
		OFFSET 0.004439 0.124404 -0.038385
		CHANNELS 3 Zrotation Yrotation Xrotation
		JOINT upperback
		{
			OFFSET 0.004488 0.137956 0.026820
			CHANNELS 3 Zrotation Yrotation Xrotation
			JOINT chest
			{
				OFFSET -0.002265 0.056032 0.002855
				CHANNELS 3 Zrotation Yrotation Xrotation
				JOINT lowerneck
				{
					OFFSET -0.013390 0.211636 -0.033468
					CHANNELS 3 Zrotation Yrotation Xrotation
					JOINT upperneck
					{
						OFFSET 0.010113 0.088937 0.050410
						CHANNELS 3 Zrotation Yrotation Xrotation
						End Site
						{
							OFFSET 0.000000 0.000000 0.000000
						}
					}
				}
				JOINT lclavicle
				{
					OFFSET 0.071702 0.114000 -0.018898
					CHANNELS 3 Zrotation Yrotation Xrotation
					JOINT lshoulder
					{
						OFFSET 0.122921 0.045205 -0.019046
						CHANNELS 3 Zrotation Yrotation Xrotation
						JOINT lelbow
						{
							OFFSET 0.255332 -0.015649 -0.022946
							CHANNELS 3 Zrotation Yrotation Xrotation
							JOINT lwrist
							{
								OFFSET 0.265709 0.012698 -0.007375
								CHANNELS 3 Zrotation Yrotation Xrotation
								End Site
								{
									OFFSET 0.000000 0.000000 0.000000
								}
							}
						}
					}
				}
				JOINT rclavicle
				{
					OFFSET -0.082954 0.112472 -0.023707
					CHANNELS 3 Zrotation Yrotation Xrotation
					JOINT rshoulder
					{
						OFFSET -0.113228 0.046853 -0.008472
						CHANNELS 3 Zrotation Yrotation Xrotation
						JOINT relbow
						{
							OFFSET -0.260127 -0.014369 -0.031269
							CHANNELS 3 Zrotation Yrotation Xrotation
							JOINT rwrist
							{
								OFFSET -0.269108 0.006794 -0.006027
								CHANNELS 3 Zrotation Yrotation Xrotation
								End Site
								{
									OFFSET 0.000000 0.000000 0.000000
								}
							}
						}
					}
				}
			}
		}
	}
}
MOTION
Frames: 13
Frame Time: 0.033333
0.175224 1.051095 0.988713 -61.373549 -1.355787 82.125751 -0.251069 2.420540 6.530322 0.703719 -6.085897 4.464740 2.749938 12.126610 -10.747592 0.000000 -0.000000 0.000000 -1.296901 -4.895888 5.987479 -3.251609 -1.529530 1.885678 2.378099 -10.190635 -10.748153 0.000000 -0.000000 0.000000 -3.211899 3.846809 5.459362 -0.965841 -1.968484 9.996777 -1.067109 2.047253 -2.107843 3.230817 4.865682 0.614436 5.277216 4.662494 -0.625322 -27.473732 -4.947490 0.775775 -49.743765 -4.388726 14.749566 -1.728643 -21.373195 5.496224 -6.770682 -1.381493 2.228897 27.620706 12.145254 6.933022 56.238465 6.708947 17.729853 -1.270584 20.706551 -0.211886 10.811788 3.843017 -4.857126 
0.175452 1.051309 0.988444 -61.363850 -1.347890 82.144671 -0.250757 2.325520 6.461429 0.692086 -6.006015 4.484829 2.732967 12.198221 -10.718852 0.000000 -0.000000 0.000000 -1.258275 -4.879727 5.945662 -3.281884 -1.473704 1.879304 2.383874 -10.129649 -10.696928 0.000000 -0.000000 0.000000 -3.099888 3.706212 5.436772 -1.129743 -2.110228 10.215873 -1.196300 2.228807 -2.262775 3.282509 5.018611 0.426788 5.426946 4.605341 -0.531065 -27.337895 -4.891026 0.662140 -49.624563 -4.439266 14.643207 -1.949083 -21.468259 5.665586 -7.508404 -1.916394 2.415227 27.685341 12.288719 6.970928 56.296881 6.781690 17.639665 -1.279194 20.660662 -0.257096 11.119017 4.052810 -4.673347 
0.175506 1.051244 0.988280 -61.350531 -1.324138 82.176034 -0.238538 2.299803 6.417342 0.693673 -6.017601 4.479958 2.702706 12.197892 -10.704432 0.000000 -0.000000 0.000000 -1.246873 -4.964661 5.894079 -3.224622 -1.591802 1.819413 2.366762 -10.251414 -10.719978 0.000000 -0.000000 0.000000 -3.039439 3.681087 5.418102 -1.161050 -2.111127 10.105424 -1.208576 2.265008 -2.204049 3.324795 5.050752 0.408919 5.426387 4.623591 -0.414121 -27.293448 -4.858499 0.636742 -49.695174 -4.431902 14.642208 -1.856861 -21.419811 5.685622 -7.585172 -1.880947 2.421863 27.664387 12.276877 6.988943 56.311442 6.791229 17.644373 -1.246388 20.664118 -0.155740 11.158471 4.055647 -4.632507 
0.175617 1.051263 0.988228 -61.324242 -1.315730 82.168535 -0.252200 2.266455 6.459931 0.742065 -6.097894 4.376352 2.669994 12.192326 -10.629749 0.000000 -0.000000 0.000000 -1.212074 -4.965376 5.901719 -3.270969 -1.618450 1.798427 2.338233 -10.269450 -10.728737 0.000000 -0.000000 0.000000 -3.032561 3.665579 5.483577 -1.163600 -2.095978 9.925490 -1.184087 2.279365 -2.103176 3.303681 5.058553 0.418544 5.471794 4.656766 -0.465182 -27.196524 -4.778926 0.600290 -49.812716 -4.440540 14.621862 -1.825878 -21.542691 5.811364 -7.683493 -1.843512 2.222330 27.581485 12.270701 6.976613 56.402497 6.800060 17.677906 -1.300342 20.623120 -0.047497 11.211292 4.023957 -4.738214 
0.175681 1.051218 0.988243 -61.335925 -1.302297 82.173933 -0.239149 2.290268 6.451014 0.732945 -6.070054 4.375596 2.666013 12.199341 -10.636256 0.000000 -0.000000 0.000000 -1.207191 -4.962522 5.904516 -3.283623 -1.558005 1.801519 2.342541 -10.215731 -10.713789 0.000000 -0.000000 0.000000 -3.021556 3.641950 5.490727 -1.151216 -2.105530 9.910957 -1.180019 2.311395 -2.127015 3.297132 5.067229 0.419948 5.462788 4.705792 -0.440532 -27.217443 -4.765966 0.600833 -49.816516 -4.407231 14.647524 -1.853269 -21.593079 5.877907 -7.674013 -1.841068 2.197605 27.573085 12.262508 6.981755 56.372151 6.784896 17.697570 -1.269408 20.653973 -0.007373 11.218991 4.024560 -4.745661 
0.175742 1.051204 0.988274 -61.337243 -1.313165 82.164860 -0.270087 2.306449 6.476705 0.760273 -6.024600 4.331723 2.662118 12.223018 -10.596939 0.000000 -0.000000 0.000000 -1.204831 -4.952103 5.945667 -3.333772 -1.497658 1.759199 2.378630 -10.127758 -10.680861 0.000000 -0.000000 0.000000 -3.015872 3.630792 5.480474 -1.145235 -2.121059 9.952932 -1.183596 2.320884 -2.176421 3.273311 5.095411 0.427808 5.454857 4.740327 -0.430750 -27.266387 -4.772834 0.634838 -49.824855 -4.358264 14.654871 -1.854800 -21.682170 5.872576 -7.551337 -1.870234 2.283376 27.592462 12.300405 7.029810 56.348419 6.781217 17.681176 -1.268878 20.686815 -0.076603 11.163517 4.030463 -4.685892 
0.175808 1.051120 0.988179 -61.379158 -1.327929 82.167627 -0.281966 2.336236 6.471867 0.737357 -5.979061 4.328839 2.675902 12.223488 -10.640897 0.000000 -0.000000 0.000000 -1.188538 -5.010406 5.924807 -3.378952 -1.593965 1.703573 2.359602 -10.175631 -10.681214 0.000000 -0.000000 0.000000 -3.068692 3.578269 5.457414 -1.114811 -2.147600 9.965188 -1.165226 2.400776 -2.182473 3.256062 5.143417 0.453672 5.437327 4.772698 -0.470668 -27.248248 -4.748468 0.605454 -49.923603 -4.327009 14.700837 -1.897442 -21.767608 5.876150 -7.539252 -1.800143 2.351281 27.550851 12.333716 7.048420 56.350623 6.776129 17.670003 -1.269742 20.689883 -0.124111 11.139165 3.994983 -4.598470 
0.175862 1.051150 0.988180 -61.397116 -1.308267 82.177601 -0.256236 2.307332 6.481505 0.745953 -6.052336 4.310574 2.662426 12.207234 -10.642166 0.000000 -0.000000 0.000000 -1.235732 -4.990521 5.927356 -3.293097 -1.467929 1.730733 2.398216 -10.035727 -10.703669 0.000000 -0.000000 0.000000 -3.014589 3.543895 5.421674 -1.123042 -2.163482 10.046199 -1.212637 2.457570 -2.250734 3.240350 5.162558 0.461496 5.417113 4.787710 -0.424691 -27.278930 -4.679814 0.535585 -49.951863 -4.321239 14.750180 -1.892295 -21.908929 5.937724 -7.361095 -1.741703 2.339295 27.581658 12.271652 7.063578 56.331975 6.807629 17.683611 -1.250897 20.668300 -0.135493 11.050883 3.949884 -4.528883 
0.175931 1.051101 0.988156 -61.407298 -1.338871 82.170197 -0.306081 2.324566 6.493351 0.782838 -6.078785 4.285087 2.667277 12.200777 -10.653876 0.000000 -0.000000 0.000000 -1.225050 -5.031700 5.912476 -3.366627 -1.485057 1.719663 2.437729 -10.045141 -10.731717 0.000000 -0.000000 0.000000 -2.999703 3.555340 5.465723 -1.145089 -2.146550 9.987700 -1.230728 2.425586 -2.241520 3.197666 5.153068 0.477666 5.395908 4.809806 -0.416092 -27.263883 -4.621021 0.507634 -50.092125 -4.309756 14.784118 -1.809740 -22.039084 5.882050 -6.864790 -1.758478 2.230938 27.571923 12.196916 7.023814 56.342522 6.790386 17.705011 -1.183550 20.676192 -0.078688 10.885852 3.936375 -4.543444 
0.176015 1.051082 0.988112 -61.440517 -1.329421 82.141316 -0.299384 2.358899 6.506609 0.789255 -6.074671 4.315392 2.653543 12.194194 -10.644508 0.000000 -0.000000 0.000000 -1.253878 -5.035726 5.921092 -3.335602 -1.476926 1.757412 2.398607 -10.077536 -10.740282 0.000000 -0.000000 0.000000 -2.929212 3.566312 5.514898 -1.170155 -2.126633 9.979938 -1.278534 2.429506 -2.231343 3.211575 5.144945 0.317094 5.346796 4.840379 -0.311659 -27.290264 -4.603337 0.439670 -50.146256 -4.354685 14.806424 -1.766857 -21.979096 5.776416 -6.526786 -1.678369 2.140628 27.599602 12.096010 6.973633 56.311597 6.791325 17.714475 -1.127971 20.725508 -0.060188 10.786051 3.865310 -4.495092 
0.176058 1.051211 0.988137 -61.446950 -1.361479 82.152069 -0.292063 2.402421 6.440842 0.700043 -5.999124 4.404537 2.617558 12.190974 -10.650413 0.000000 -0.000000 0.000000 -1.251704 -5.011485 5.883689 -3.376092 -1.442878 1.792620 2.405137 -10.053899 -10.748229 0.000000 -0.000000 0.000000 -2.931248 3.605586 5.502644 -1.177175 -2.103228 10.020306 -1.318136 2.374496 -2.242028 3.188511 5.158587 0.244196 5.283562 4.806873 -0.374068 -27.364902 -4.626929 0.382813 -50.092539 -4.353219 14.835859 -1.775330 -21.923753 5.585452 -6.180788 -1.678105 2.096234 27.720105 12.048525 6.911123 56.236265 6.782304 17.697241 -1.080178 20.708485 -0.192719 10.639014 3.862019 -4.385797 
0.176022 1.051192 0.988041 -61.468872 -1.368861 82.142825 -0.319703 2.403459 6.460302 0.750146 -6.010599 4.392293 2.628945 12.189042 -10.674918 0.000000 -0.000000 0.000000 -1.234380 -5.046924 5.870027 -3.353685 -1.580254 1.757467 2.390336 -10.172658 -10.818736 0.000000 -0.000000 0.000000 -2.893966 3.623114 5.462050 -1.212453 -2.087727 10.052924 -1.353466 2.371356 -2.193163 3.181894 5.191839 0.195327 5.253789 4.779027 -0.362932 -27.342588 -4.625787 0.325512 -50.105512 -4.425458 14.814984 -1.853141 -21.804833 5.487419 -6.160857 -1.703794 2.162054 27.728381 12.047666 6.864690 56.270256 6.800105 17.670221 -1.074608 20.640902 -0.277404 10.594961 3.911100 -4.352032 
0.175973 1.051143 0.988059 -61.473101 -1.342840 82.133195 -0.308173 2.386290 6.471711 0.767243 -6.009736 4.398053 2.657932 12.215428 -10.669260 0.000000 -0.000000 0.000000 -1.228889 -4.985584 5.841100 -3.380099 -1.416697 1.945787 2.361934 -10.089805 -10.818977 0.000000 -0.000000 0.000000 -2.824398 3.623856 5.435545 -1.229537 -2.105986 10.118532 -1.403912 2.388191 -2.220058 3.164602 5.225302 0.205711 5.238717 4.774466 -0.369060 -27.355821 -4.624114 0.259648 -50.062515 -4.445240 14.866530 -1.919758 -21.703434 5.610572 -6.355072 -1.642937 2.326881 27.735488 12.006071 6.826005 56.266184 6.804406 17.678110 -1.044260 20.640694 -0.299407 10.722547 3.891639 -4.365843 
